<svg width="335" height="39" viewBox="0 0 335 39" fill="none" xmlns="http://www.w3.org/2000/svg">
<path d="M26.3609 38C25.9129 36.688 25.4489 35.392 24.9689 34.112C24.4889 32.832 24.0249 31.52 23.5769 30.176H9.56088C9.11288 31.52 8.64888 32.848 8.16888 34.16C7.72088 35.44 7.27288 36.72 6.82488 38H0.536875C1.78488 34.448 2.96888 31.168 4.08888 28.16C5.20888 25.152 6.29688 22.304 7.35287 19.616C8.44088 16.928 9.51288 14.368 10.5689 11.936C11.6249 9.504 12.7129 7.104 13.8329 4.736H19.5449C20.6649 7.104 21.7529 9.504 22.8089 11.936C23.8649 14.368 24.9209 16.928 25.9769 19.616C27.0649 22.304 28.1689 25.152 29.2889 28.16C30.4409 31.168 31.6409 34.448 32.8889 38H26.3609ZM16.5689 11.168C15.8329 12.864 14.9849 14.928 14.0249 17.36C13.0969 19.792 12.1209 22.432 11.0969 25.28H22.0409C21.0169 22.432 20.0249 19.776 19.0649 17.312C18.1049 14.848 17.2729 12.8 16.5689 11.168ZM51.1094 18.128C50.6294 17.968 49.9574 17.808 49.0934 17.648C48.2614 17.456 47.2854 17.36 46.1654 17.36C45.5254 17.36 44.8374 17.424 44.1014 17.552C43.3974 17.68 42.9014 17.792 42.6134 17.888V38H36.8054V14.096C37.9254 13.68 39.3174 13.296 40.9814 12.944C42.6774 12.56 44.5494 12.368 46.5974 12.368C46.9814 12.368 47.4294 12.4 47.9414 12.464C48.4534 12.496 48.9654 12.56 49.4774 12.656C49.9894 12.72 50.4854 12.816 50.9654 12.944C51.4454 13.04 51.8294 13.136 52.1174 13.232L51.1094 18.128ZM72.8208 25.376C72.8208 22.912 72.3248 20.96 71.3328 19.52C70.3728 18.08 68.8368 17.36 66.7248 17.36C65.7648 17.36 64.8528 17.504 63.9888 17.792C63.1568 18.08 62.4848 18.4 61.9728 18.752V33.2C62.3888 33.296 62.9168 33.392 63.5568 33.488C64.2288 33.552 65.0288 33.584 65.9568 33.584C68.1008 33.584 69.7808 32.864 70.9968 31.424C72.2128 29.952 72.8208 27.936 72.8208 25.376ZM78.7728 25.472C78.7728 27.488 78.4688 29.312 77.8608 30.944C77.2848 32.544 76.4368 33.92 75.3168 35.072C74.2288 36.224 72.9008 37.104 71.3328 37.712C69.7648 38.32 67.9888 38.624 66.0048 38.624C64.0848 38.624 62.2448 38.48 60.4848 38.192C58.7568 37.904 57.3168 37.584 56.1648 37.232V1.712L61.9728 0.751999V13.76C62.6448 13.408 63.4608 13.088 64.4208 12.8C65.4128 12.512 66.5008 12.368 67.6848 12.368C69.4448 12.368 71.0128 12.688 72.3888 13.328C73.7968 13.936 74.9648 14.816 75.8928 15.968C76.8208 17.12 77.5248 18.512 78.0048 20.144C78.5168 21.744 78.7728 23.52 78.7728 25.472ZM90.6145 38H84.8065V12.896H90.6145V38ZM91.2385 5.552C91.2385 6.64 90.8865 7.504 90.1825 8.144C89.4785 8.784 88.6465 9.104 87.6865 9.104C86.6945 9.104 85.8465 8.784 85.1425 8.144C84.4385 7.504 84.0865 6.64 84.0865 5.552C84.0865 4.432 84.4385 3.552 85.1425 2.912C85.8465 2.272 86.6945 1.952 87.6865 1.952C88.6465 1.952 89.4785 2.272 90.1825 2.912C90.8865 3.552 91.2385 4.432 91.2385 5.552ZM97.7361 6.272L103.544 5.312V12.896H112.472V17.744H103.544V27.968C103.544 29.984 103.864 31.424 104.504 32.288C105.144 33.152 106.232 33.584 107.768 33.584C108.824 33.584 109.752 33.472 110.552 33.248C111.384 33.024 112.04 32.816 112.52 32.624L113.48 37.232C112.808 37.52 111.928 37.808 110.84 38.096C109.752 38.416 108.472 38.576 107 38.576C105.208 38.576 103.704 38.336 102.488 37.856C101.304 37.376 100.36 36.688 99.6561 35.792C98.9521 34.864 98.4561 33.76 98.1681 32.48C97.8801 31.168 97.7361 29.68 97.7361 28.016V6.272ZM126.823 38.48C125.095 38.448 123.655 38.256 122.503 37.904C121.383 37.552 120.487 37.056 119.815 36.416C119.143 35.744 118.663 34.928 118.375 33.968C118.119 32.976 117.991 31.856 117.991 30.608V1.712L123.799 0.751999V29.504C123.799 30.208 123.847 30.8 123.943 31.28C124.071 31.76 124.279 32.176 124.567 32.528C124.855 32.848 125.239 33.104 125.719 33.296C126.231 33.456 126.871 33.584 127.639 33.68L126.823 38.48ZM141.169 33.92C142.961 33.92 144.321 33.824 145.249 33.632V27.2C144.929 27.104 144.465 27.008 143.857 26.912C143.249 26.816 142.577 26.768 141.841 26.768C141.201 26.768 140.545 26.816 139.873 26.912C139.233 27.008 138.641 27.184 138.097 27.44C137.585 27.696 137.169 28.064 136.849 28.544C136.529 28.992 136.369 29.568 136.369 30.272C136.369 31.648 136.801 32.608 137.665 33.152C138.529 33.664 139.697 33.92 141.169 33.92ZM140.689 12.272C142.609 12.272 144.225 12.512 145.537 12.992C146.849 13.472 147.889 14.144 148.657 15.008C149.457 15.872 150.017 16.928 150.337 18.176C150.689 19.392 150.865 20.736 150.865 22.208V37.424C149.969 37.616 148.609 37.84 146.785 38.096C144.993 38.384 142.961 38.528 140.689 38.528C139.185 38.528 137.809 38.384 136.561 38.096C135.313 37.808 134.241 37.344 133.345 36.704C132.481 36.064 131.793 35.232 131.281 34.208C130.801 33.184 130.561 31.92 130.561 30.416C130.561 28.976 130.833 27.76 131.377 26.768C131.953 25.776 132.721 24.976 133.681 24.368C134.641 23.728 135.745 23.28 136.993 23.024C138.273 22.736 139.601 22.592 140.977 22.592C141.617 22.592 142.289 22.64 142.993 22.736C143.697 22.8 144.449 22.928 145.249 23.12V22.16C145.249 21.488 145.169 20.848 145.009 20.24C144.849 19.632 144.561 19.104 144.145 18.656C143.761 18.176 143.233 17.808 142.561 17.552C141.921 17.296 141.105 17.168 140.113 17.168C138.769 17.168 137.537 17.264 136.417 17.456C135.297 17.648 134.385 17.872 133.681 18.128L132.961 13.424C133.697 13.168 134.769 12.912 136.177 12.656C137.585 12.4 139.089 12.272 140.689 12.272ZM174.633 25.376C174.633 22.912 174.137 20.96 173.145 19.52C172.185 18.08 170.649 17.36 168.537 17.36C167.577 17.36 166.665 17.504 165.801 17.792C164.969 18.08 164.297 18.4 163.785 18.752V33.2C164.201 33.296 164.729 33.392 165.369 33.488C166.041 33.552 166.841 33.584 167.769 33.584C169.913 33.584 171.593 32.864 172.809 31.424C174.025 29.952 174.633 27.936 174.633 25.376ZM180.585 25.472C180.585 27.488 180.281 29.312 179.673 30.944C179.097 32.544 178.249 33.92 177.129 35.072C176.041 36.224 174.713 37.104 173.145 37.712C171.577 38.32 169.801 38.624 167.817 38.624C165.897 38.624 164.057 38.48 162.297 38.192C160.569 37.904 159.129 37.584 157.977 37.232V1.712L163.785 0.751999V13.76C164.457 13.408 165.273 13.088 166.233 12.8C167.225 12.512 168.313 12.368 169.497 12.368C171.257 12.368 172.825 12.688 174.201 13.328C175.609 13.936 176.777 14.816 177.705 15.968C178.633 17.12 179.337 18.512 179.817 20.144C180.329 21.744 180.585 23.52 180.585 25.472ZM220.142 38C219.694 36.688 219.23 35.392 218.75 34.112C218.27 32.832 217.806 31.52 217.358 30.176H203.342C202.894 31.52 202.43 32.848 201.95 34.16C201.502 35.44 201.054 36.72 200.606 38H194.318C195.566 34.448 196.75 31.168 197.87 28.16C198.99 25.152 200.078 22.304 201.134 19.616C202.222 16.928 203.294 14.368 204.35 11.936C205.406 9.504 206.494 7.104 207.614 4.736H213.326C214.446 7.104 215.534 9.504 216.59 11.936C217.646 14.368 218.702 16.928 219.758 19.616C220.846 22.304 221.95 25.152 223.07 28.16C224.222 31.168 225.422 34.448 226.67 38H220.142ZM210.35 11.168C209.614 12.864 208.766 14.928 207.806 17.36C206.878 19.792 205.902 22.432 204.878 25.28H215.822C214.798 22.432 213.806 19.776 212.846 17.312C211.886 14.848 211.054 12.8 210.35 11.168ZM234.49 25.376C234.49 27.936 235.098 29.952 236.314 31.424C237.53 32.864 239.21 33.584 241.354 33.584C242.282 33.584 243.066 33.552 243.706 33.488C244.378 33.392 244.922 33.296 245.338 33.2V18.8C244.826 18.448 244.138 18.128 243.274 17.84C242.442 17.52 241.546 17.36 240.586 17.36C238.474 17.36 236.922 18.08 235.93 19.52C234.97 20.96 234.49 22.912 234.49 25.376ZM251.146 37.232C249.994 37.584 248.538 37.904 246.778 38.192C245.05 38.48 243.226 38.624 241.306 38.624C239.322 38.624 237.546 38.32 235.978 37.712C234.41 37.104 233.066 36.24 231.946 35.12C230.858 33.968 230.01 32.592 229.402 30.992C228.826 29.36 228.538 27.536 228.538 25.52C228.538 23.536 228.778 21.744 229.258 20.144C229.77 18.512 230.506 17.12 231.466 15.968C232.426 14.816 233.594 13.936 234.97 13.328C236.346 12.688 237.93 12.368 239.722 12.368C240.938 12.368 242.01 12.512 242.938 12.8C243.866 13.088 244.666 13.408 245.338 13.76V1.712L251.146 0.751999V37.232ZM272.828 24.8C272.828 22.176 272.492 20.288 271.82 19.136C271.18 17.952 269.964 17.36 268.172 17.36C267.532 17.36 266.828 17.408 266.06 17.504C265.292 17.6 264.716 17.68 264.332 17.744V38H258.524V13.712C259.644 13.392 261.1 13.088 262.892 12.8C264.716 12.512 266.636 12.368 268.652 12.368C270.38 12.368 271.788 12.592 272.876 13.04C273.996 13.488 274.924 14.08 275.66 14.816C276.012 14.56 276.46 14.288 277.004 14C277.548 13.712 278.156 13.456 278.828 13.232C279.5 12.976 280.204 12.768 280.94 12.608C281.708 12.448 282.476 12.368 283.244 12.368C285.196 12.368 286.796 12.656 288.044 13.232C289.324 13.776 290.316 14.56 291.02 15.584C291.756 16.576 292.252 17.792 292.508 19.232C292.796 20.64 292.94 22.192 292.94 23.888V38H287.132V24.8C287.132 22.176 286.812 20.288 286.172 19.136C285.532 17.952 284.3 17.36 282.476 17.36C281.548 17.36 280.668 17.52 279.836 17.84C279.004 18.128 278.38 18.416 277.964 18.704C278.22 19.504 278.396 20.352 278.492 21.248C278.588 22.144 278.636 23.104 278.636 24.128V38H272.828V24.8ZM305.911 38H300.103V12.896H305.911V38ZM306.535 5.552C306.535 6.64 306.183 7.504 305.479 8.144C304.775 8.784 303.943 9.104 302.983 9.104C301.991 9.104 301.143 8.784 300.439 8.144C299.735 7.504 299.383 6.64 299.383 5.552C299.383 4.432 299.735 3.552 300.439 2.912C301.143 2.272 301.991 1.952 302.983 1.952C303.943 1.952 304.775 2.272 305.479 2.912C306.183 3.552 306.535 4.432 306.535 5.552ZM313.321 13.712C314.441 13.392 315.897 13.088 317.689 12.8C319.481 12.512 321.465 12.368 323.641 12.368C325.689 12.368 327.401 12.656 328.777 13.232C330.153 13.776 331.241 14.56 332.041 15.584C332.873 16.576 333.449 17.792 333.769 19.232C334.121 20.64 334.297 22.192 334.297 23.888V38H328.489V24.8C328.489 23.456 328.393 22.32 328.201 21.392C328.041 20.432 327.753 19.664 327.337 19.088C326.953 18.48 326.409 18.048 325.705 17.792C325.033 17.504 324.201 17.36 323.209 17.36C322.473 17.36 321.705 17.408 320.905 17.504C320.105 17.6 319.513 17.68 319.129 17.744V38H313.321V13.712Z" fill="black"/>
</svg>
